<mxfile host="Electron" agent="Mozilla/5.0 (Windows NT 10.0; Win64; x64) AppleWebKit/537.36 (KHTML, like Gecko) draw.io/26.0.16 Chrome/132.0.6834.196 Electron/34.2.0 Safari/537.36" version="26.0.16">
  <diagram name="Page-1" id="6JsNAGcMarGA-BF1R3Zj">
    <mxGraphModel dx="512" dy="342" grid="1" gridSize="10" guides="1" tooltips="1" connect="1" arrows="1" fold="1" page="1" pageScale="1" pageWidth="3300" pageHeight="4681" math="0" shadow="0">
      <root>
        <mxCell id="0" />
        <mxCell id="1" parent="0" />
        <mxCell id="eWcfK1fgkU-MmOyLGzsD-24" value="" style="rounded=0;whiteSpace=wrap;html=1;fillColor=none;" vertex="1" parent="1">
          <mxGeometry x="280" y="320" width="470" height="790" as="geometry" />
        </mxCell>
        <mxCell id="eWcfK1fgkU-MmOyLGzsD-4" value="&lt;font style=&quot;font-size: 35px;&quot;&gt;開始&lt;/font&gt;" style="html=1;dashed=0;whiteSpace=wrap;shape=mxgraph.dfd.start;fillColor=none;" vertex="1" parent="1">
          <mxGeometry x="360" y="200" width="320" height="80" as="geometry" />
        </mxCell>
        <mxCell id="eWcfK1fgkU-MmOyLGzsD-5" value="&lt;span style=&quot;font-size: 35px;&quot;&gt;終了&lt;/span&gt;" style="html=1;dashed=0;whiteSpace=wrap;shape=mxgraph.dfd.start;fillColor=none;" vertex="1" parent="1">
          <mxGeometry x="360" y="1400" width="320" height="80" as="geometry" />
        </mxCell>
        <mxCell id="eWcfK1fgkU-MmOyLGzsD-6" value="" style="endArrow=classic;html=1;rounded=0;exitX=0.5;exitY=0.5;exitDx=0;exitDy=40;exitPerimeter=0;" edge="1" parent="1" source="eWcfK1fgkU-MmOyLGzsD-4">
          <mxGeometry width="50" height="50" relative="1" as="geometry">
            <mxPoint x="820" y="840" as="sourcePoint" />
            <mxPoint x="520" y="400" as="targetPoint" />
          </mxGeometry>
        </mxCell>
        <mxCell id="eWcfK1fgkU-MmOyLGzsD-7" value="&lt;div&gt;&lt;span style=&quot;background-color: transparent; color: light-dark(rgb(0, 0, 0), rgb(255, 255, 255));&quot;&gt;&lt;font style=&quot;font-size: 19px;&quot;&gt;&lt;br&gt;&lt;/font&gt;&lt;/span&gt;&lt;/div&gt;&lt;span style=&quot;background-color: transparent; color: light-dark(rgb(0, 0, 0), rgb(255, 255, 255));&quot;&gt;&lt;font style=&quot;font-size: 19px;&quot;&gt;地形モデルの作成&lt;/font&gt;&lt;/span&gt;" style="rounded=0;whiteSpace=wrap;html=1;fillColor=none;align=center;" vertex="1" parent="1">
          <mxGeometry x="360" y="400" width="320" height="80" as="geometry" />
        </mxCell>
        <mxCell id="eWcfK1fgkU-MmOyLGzsD-8" value="&lt;b&gt;&lt;font style=&quot;font-size: 26px;&quot;&gt;EEM-RTM&lt;/font&gt;&lt;/b&gt;" style="text;html=1;align=center;verticalAlign=middle;whiteSpace=wrap;rounded=0;" vertex="1" parent="1">
          <mxGeometry x="360" y="400" width="150" height="40" as="geometry" />
        </mxCell>
        <mxCell id="eWcfK1fgkU-MmOyLGzsD-9" value="" style="endArrow=classic;html=1;rounded=0;exitX=0.5;exitY=0.5;exitDx=0;exitDy=40;exitPerimeter=0;" edge="1" parent="1">
          <mxGeometry width="50" height="50" relative="1" as="geometry">
            <mxPoint x="519.52" y="480" as="sourcePoint" />
            <mxPoint x="519.52" y="600" as="targetPoint" />
          </mxGeometry>
        </mxCell>
        <mxCell id="eWcfK1fgkU-MmOyLGzsD-12" value="&lt;div&gt;&lt;span style=&quot;background-color: transparent; color: light-dark(rgb(0, 0, 0), rgb(255, 255, 255));&quot;&gt;&lt;font style=&quot;font-size: 19px;&quot;&gt;&lt;br&gt;&lt;/font&gt;&lt;/span&gt;&lt;/div&gt;&lt;span style=&quot;background-color: transparent; color: light-dark(rgb(0, 0, 0), rgb(255, 255, 255));&quot;&gt;&lt;font style=&quot;font-size: 19px;&quot;&gt;座標・パラメータ設定&lt;/font&gt;&lt;/span&gt;" style="rounded=0;whiteSpace=wrap;html=1;fillColor=none;align=center;" vertex="1" parent="1">
          <mxGeometry x="350" y="600" width="320" height="80" as="geometry" />
        </mxCell>
        <mxCell id="eWcfK1fgkU-MmOyLGzsD-13" value="&lt;b&gt;&lt;font style=&quot;font-size: 26px;&quot;&gt;MATLAB&lt;/font&gt;&lt;/b&gt;" style="text;html=1;align=center;verticalAlign=middle;whiteSpace=wrap;rounded=0;" vertex="1" parent="1">
          <mxGeometry x="350" y="600" width="150" height="40" as="geometry" />
        </mxCell>
        <mxCell id="eWcfK1fgkU-MmOyLGzsD-14" value="" style="endArrow=classic;html=1;rounded=0;exitX=0.5;exitY=0.5;exitDx=0;exitDy=40;exitPerimeter=0;" edge="1" parent="1">
          <mxGeometry width="50" height="50" relative="1" as="geometry">
            <mxPoint x="519.52" y="680" as="sourcePoint" />
            <mxPoint x="519.52" y="800" as="targetPoint" />
          </mxGeometry>
        </mxCell>
        <mxCell id="eWcfK1fgkU-MmOyLGzsD-15" value="&lt;div&gt;&lt;span style=&quot;background-color: transparent; color: light-dark(rgb(0, 0, 0), rgb(255, 255, 255));&quot;&gt;&lt;font style=&quot;font-size: 19px;&quot;&gt;&lt;br&gt;&lt;/font&gt;&lt;/span&gt;&lt;/div&gt;&lt;span style=&quot;background-color: transparent; color: light-dark(rgb(0, 0, 0), rgb(255, 255, 255));&quot;&gt;&lt;font style=&quot;font-size: 19px;&quot;&gt;伝搬路解析・受信電力計算&lt;/font&gt;&lt;/span&gt;" style="rounded=0;whiteSpace=wrap;html=1;fillColor=none;align=center;" vertex="1" parent="1">
          <mxGeometry x="360" y="800" width="320" height="80" as="geometry" />
        </mxCell>
        <mxCell id="eWcfK1fgkU-MmOyLGzsD-16" value="&lt;b&gt;&lt;font style=&quot;font-size: 26px;&quot;&gt;EEM-RTM&lt;/font&gt;&lt;/b&gt;" style="text;html=1;align=center;verticalAlign=middle;whiteSpace=wrap;rounded=0;" vertex="1" parent="1">
          <mxGeometry x="360" y="800" width="150" height="40" as="geometry" />
        </mxCell>
        <mxCell id="eWcfK1fgkU-MmOyLGzsD-17" value="" style="endArrow=classic;html=1;rounded=0;exitX=0.5;exitY=0.5;exitDx=0;exitDy=40;exitPerimeter=0;" edge="1" parent="1">
          <mxGeometry width="50" height="50" relative="1" as="geometry">
            <mxPoint x="519.52" y="880" as="sourcePoint" />
            <mxPoint x="519.52" y="1000" as="targetPoint" />
          </mxGeometry>
        </mxCell>
        <mxCell id="eWcfK1fgkU-MmOyLGzsD-18" value="&lt;div&gt;&lt;span style=&quot;background-color: transparent; color: light-dark(rgb(0, 0, 0), rgb(255, 255, 255));&quot;&gt;&lt;font style=&quot;font-size: 19px;&quot;&gt;&lt;br&gt;&lt;/font&gt;&lt;/span&gt;&lt;/div&gt;&lt;span style=&quot;background-color: transparent; color: light-dark(rgb(0, 0, 0), rgb(255, 255, 255));&quot;&gt;&lt;font style=&quot;font-size: 19px;&quot;&gt;合計受信電力の算出&lt;/font&gt;&lt;/span&gt;" style="rounded=0;whiteSpace=wrap;html=1;fillColor=none;align=center;" vertex="1" parent="1">
          <mxGeometry x="360" y="1000" width="320" height="80" as="geometry" />
        </mxCell>
        <mxCell id="eWcfK1fgkU-MmOyLGzsD-19" value="&lt;b&gt;&lt;font style=&quot;font-size: 26px;&quot;&gt;MATLAB&lt;/font&gt;&lt;/b&gt;" style="text;html=1;align=center;verticalAlign=middle;whiteSpace=wrap;rounded=0;" vertex="1" parent="1">
          <mxGeometry x="360" y="1000" width="150" height="40" as="geometry" />
        </mxCell>
        <mxCell id="eWcfK1fgkU-MmOyLGzsD-20" value="" style="endArrow=classic;html=1;rounded=0;exitX=0.5;exitY=0.5;exitDx=0;exitDy=40;exitPerimeter=0;" edge="1" parent="1">
          <mxGeometry width="50" height="50" relative="1" as="geometry">
            <mxPoint x="519.52" y="1080" as="sourcePoint" />
            <mxPoint x="519.52" y="1200" as="targetPoint" />
          </mxGeometry>
        </mxCell>
        <mxCell id="eWcfK1fgkU-MmOyLGzsD-21" value="&lt;div&gt;&lt;span style=&quot;background-color: transparent; color: light-dark(rgb(0, 0, 0), rgb(255, 255, 255));&quot;&gt;&lt;font style=&quot;font-size: 19px;&quot;&gt;&lt;br&gt;&lt;/font&gt;&lt;/span&gt;&lt;/div&gt;&lt;span style=&quot;background-color: transparent; color: light-dark(rgb(0, 0, 0), rgb(255, 255, 255));&quot;&gt;&lt;font style=&quot;font-size: 19px;&quot;&gt;MAC層を含めたスループットの算出&lt;/font&gt;&lt;/span&gt;" style="rounded=0;whiteSpace=wrap;html=1;fillColor=none;align=center;" vertex="1" parent="1">
          <mxGeometry x="360" y="1200" width="320" height="80" as="geometry" />
        </mxCell>
        <mxCell id="eWcfK1fgkU-MmOyLGzsD-22" value="&lt;b&gt;&lt;font style=&quot;font-size: 26px;&quot;&gt;CSMA/CAシミュレータ&lt;/font&gt;&lt;/b&gt;" style="text;html=1;align=left;verticalAlign=middle;whiteSpace=wrap;rounded=0;" vertex="1" parent="1">
          <mxGeometry x="370" y="1200" width="300" height="40" as="geometry" />
        </mxCell>
        <mxCell id="eWcfK1fgkU-MmOyLGzsD-23" value="" style="endArrow=classic;html=1;rounded=0;exitX=0.5;exitY=0.5;exitDx=0;exitDy=40;exitPerimeter=0;" edge="1" parent="1">
          <mxGeometry width="50" height="50" relative="1" as="geometry">
            <mxPoint x="519.52" y="1280" as="sourcePoint" />
            <mxPoint x="519.52" y="1400" as="targetPoint" />
          </mxGeometry>
        </mxCell>
        <mxCell id="eWcfK1fgkU-MmOyLGzsD-25" value="&lt;font style=&quot;font-size: 26px;&quot;&gt;&lt;b style=&quot;&quot;&gt;物理層シミュレータ&lt;/b&gt;&lt;/font&gt;" style="text;html=1;align=center;verticalAlign=middle;whiteSpace=wrap;rounded=0;" vertex="1" parent="1">
          <mxGeometry x="227" y="330" width="350" height="30" as="geometry" />
        </mxCell>
      </root>
    </mxGraphModel>
  </diagram>
</mxfile>
